PathFileType	4	(X/Y/Z)	C:\Users\Basilio\Documents\Thesis Gigler\squatting_fais\c3dfiles\044\SLS_front_pre2\markers_experimental.trc
DataRate	CameraRate	NumFrames	NumMarkers	Units	OrigDataRate	OrigDataStartFrame	OrigNumFrames
200.000000	200.000000	4	60	mm	200.000000	1417	1620
Frame#	Time	FHD			LBHD			RBHD			C7			T10			CLAV			LSHO			LUUPA			LMUPA			LDUPA			LLEP			LMEP			LRAD			LRFIN			RSHO			RUPA1			RMUPA			RDUPA			RLEP			RMEP			RUL			LASI			RASI			USACR			LSACR			RSACR			LTHI1			LTHI2			LTHI3			LTHI4			LLFC			LMFC			LTIB1			LTIB2			LTIB3			LTIB4			LLMAL			LMMAL			LHEE			LMT1			LMT2			LMT5			RTHI			RTHI2			RTHI3			RTHI4			RLFC			RMFC			RTIB1			RTIB2			RTIB3			RTIB4			RLMAL			RMMAL			RHEE			RMT1			RMT2			RMT5			RUFIN			LUL			
		X1	Y1	Z1	X2	Y2	Z2	X3	Y3	Z3	X4	Y4	Z4	X5	Y5	Z5	X6	Y6	Z6	X7	Y7	Z7	X8	Y8	Z8	X9	Y9	Z9	X10	Y10	Z10	X11	Y11	Z11	X12	Y12	Z12	X13	Y13	Z13	X14	Y14	Z14	X15	Y15	Z15	X16	Y16	Z16	X17	Y17	Z17	X18	Y18	Z18	X19	Y19	Z19	X20	Y20	Z20	X21	Y21	Z21	X22	Y22	Z22	X23	Y23	Z23	X24	Y24	Z24	X25	Y25	Z25	X26	Y26	Z26	X27	Y27	Z27	X28	Y28	Z28	X29	Y29	Z29	X30	Y30	Z30	X31	Y31	Z31	X32	Y32	Z32	X33	Y33	Z33	X34	Y34	Z34	X35	Y35	Z35	X36	Y36	Z36	X37	Y37	Z37	X38	Y38	Z38	X39	Y39	Z39	X40	Y40	Z40	X41	Y41	Z41	X42	Y42	Z42	X43	Y43	Z43	X44	Y44	Z44	X45	Y45	Z45	X46	Y46	Z46	X47	Y47	Z47	X48	Y48	Z48	X49	Y49	Z49	X50	Y50	Z50	X51	Y51	Z51	X52	Y52	Z52	X53	Y53	Z53	X54	Y54	Z54	X55	Y55	Z55	X56	Y56	Z56	X57	Y57	Z57	X58	Y58	Z58	X59	Y59	Z59	X60	Y60	Z60	

1418	7.085	-221.8651275634766	1808.459716796875	-860.5487060546877	-357.7621459960938	1764.84716796875	-927.7727661132815	-386.3045043945314	1742.903686523438	-764.6641845703126	-396.6914672851564	1566.46240234375	-858.826354980469	-374.2276000976563	1263.12548828125	-864.3626098632815	-254.3248596191407	1542.334106445313	-863.2374267578127	-301.1980895996094	1593.22900390625	-1008.68994140625	-134.4801788330078	1565.413452148438	-1101.517822265625	-108.0264053344727	1575.557983398438	-1058.980712890625	-64.82144165039064	1558.144897460938	-1100.061401367188	-8.484363555908205	1555.087158203125	-1086.684692382813	-20.85015678405762	1480.670776367188	-1073.349731445313	245.5886535644532	1558.19970703125	-969.2987060546877	260.1657714843751	1571.939575195313	-868.4812011718752	-306.3562927246094	1569.23291015625	-697.3538208007814	-145.1717987060547	1527.886108398438	-606.7778930664064	-116.8688125610352	1547.512817382813	-644.9292602539064	-75.25352478027345	1525.228271484375	-606.4014892578126	-14.96605110168457	1527.680053710938	-617.9945068359376	-20.49314498901368	1449.91357421875	-640.7086791992189	239.8069610595704	1547.374877929688	-736.5194702148439	-194.1291809082032	1078.4658203125	-982.8291015625002	-177.7628021240235	1061.356201171875	-767.6927490234376	-356.9318542480469	1118.443725585938	-860.9582519531252	-361.4921875000001	1084.924926757813	-887.7834472656252	-357.0853576660157	1087.701049804688	-830.2302856445315	-305.2216491699219	845.995544433594	-1057.190795898438	-275.7212524414063	766.5631103515626	-1063.375366210938	-227.9191436767579	766.6158447265626	-1059.58154296875	-305.7443847656251	715.0621337890626	-1050.760009765625	-298.1604003906251	553.6762695312501	-1045.677001953125	-280.9456481933594	540.6055297851564	-924.729675292969	-275.3591003417969	373.2401733398438	-988.777282714844	-307.1920166015626	332.4280090332032	-1061.3388671875	-273.9063720703126	328.2202453613282	-1027.400146484375	-288.7397155761719	248.6827545166016	-1003.153381347656	-344.8735961914063	134.1255950927735	-1054.682373046875	-322.1069946289063	139.0655059814453	-971.9065551757815	-407.5681457519532	111.2786407470703	-1007.067321777344	-202.0322418212891	62.91944122314455	-986.3489379882815	-201.1128997802735	63.33286285400392	-1033.2646484375	-238.1744995117188	50.22075653076173	-1079.353637695313	-286.4007263183594	797.6848144531252	-687.3357543945314	-248.8210601806641	740.7769165039064	-688.7405395507814	-217.6549224853516	741.0578613281251	-698.5527954101564	-280.6708984375001	663.0411376953126	-703.4616088867189	-292.9871520996094	546.9015502929689	-711.5745849609376	-307.6676330566407	541.6215209960939	-836.2069091796877	-257.6818237304688	417.1737365722657	-741.2693481445314	-326.9810180664063	348.7059631347657	-689.0611572265626	-286.7983093261719	340.0072631835938	-708.9431152343751	-280.0512695312501	289.2100524902344	-735.3110351562501	-350.5526733398438	138.1602020263672	-715.3754272460939	-334.9276428222657	143.561019897461	-798.8376464843752	-412.1611633300782	112.1674194335938	-757.3651733398439	-209.010238647461	66.15665435791017	-790.4127197265627	-201.2138214111329	61.34900283813478	-754.2397460937501	-237.7460174560547	48.90068817138673	-698.9161376953126	256.4312133789063	1540.71240234375	-850.7446289062502	nan	nan	nan	
1419	7.09	-221.8852081298829	1808.484619140625	-860.5942382812502	-357.8968811035157	1764.8271484375	-927.7593383789065	-386.4232788085939	1742.911376953125	-764.6711425781251	-396.7644958496095	1566.356567382813	-858.7922363281252	-374.2182922363282	1263.087768554688	-864.4011840820315	-254.3685455322266	1542.348022460938	-863.224304199219	-301.2826843261719	1593.241943359375	-1008.550903320313	-134.6396942138672	1565.6611328125	-1101.464721679688	-108.1349334716797	1575.7451171875	-1058.837524414063	-64.81168365478517	1558.302856445313	-1100.09765625	-8.37701988220215	1555.274047851563	-1086.66943359375	-20.86519622802735	1480.953857421875	-1073.368041992188	245.5518035888672	1558.536376953125	-969.2587890625002	260.0169067382813	1572.242309570313	-868.3626098632815	-306.4259948730469	1569.182739257813	-697.3441162109376	-145.2758178710938	1527.943725585938	-606.7276611328126	-117.0351257324219	1547.585571289063	-644.9148559570314	-75.32657623291017	1525.277587890625	-606.2741699218751	-15.02109241485596	1527.86767578125	-618.0076904296876	-20.52667999267578	1450.121215820313	-640.6645507812501	239.7742004394532	1547.688354492188	-736.5501708984376	-194.0541076660157	1078.445678710938	-982.8483886718752	-177.6274108886719	1061.373413085938	-767.7359008789064	-356.8492736816407	1118.377807617188	-860.9390258789065	-361.3992309570313	1084.884643554688	-887.7739257812502	-357.0119323730469	1087.694702148438	-830.1997680664065	-305.1555175781251	846.0215454101565	-1057.237182617188	-275.6393432617188	766.5821533203126	-1063.399291992188	-227.5649108886719	766.3190307617189	-1059.535522460938	-305.7044677734376	715.0850830078126	-1050.71875	-298.1755676269532	553.7120361328126	-1045.6787109375	-280.9169921875001	540.4761352539064	-924.6731567382815	-275.2835083007813	373.2393188476563	-988.8084716796877	-307.1419677734376	332.4124755859376	-1061.346557617188	-273.9338378906251	328.2078857421876	-1027.420654296875	-288.7143859863282	248.6880493164063	-1003.167663574219	-344.8984375000001	134.0526275634766	-1054.751953125	-322.0632324218751	139.0245361328125	-971.8128662109377	-407.5401000976564	111.2190170288086	-1007.027221679688	-202.0268249511719	62.95372009277345	-986.3137207031252	-200.9049224853516	62.91173553466798	-1033.319580078125	-238.190658569336	50.20275115966798	-1079.34375	-286.3237915039063	797.7728271484377	-687.5704956054689	-248.7621765136719	740.7908935546876	-688.7374877929689	-217.4768066406251	741.0212402343751	-698.6886596679689	-280.6006164550782	663.0692138671876	-703.4566040039064	-292.8568420410157	546.9735717773439	-711.6543579101564	-307.6157531738282	541.6466064453126	-836.2339477539065	-257.6630249023438	417.1727294921876	-741.2680053710939	-326.9183044433594	348.6608276367188	-689.0492553710939	-286.6907043457032	340.0247802734376	-709.0333862304689	-280.0115051269532	289.1703186035157	-735.3006591796876	-350.5251464843751	138.1581115722657	-715.3684692382814	-334.8742675781251	143.5457458496094	-798.8333740234377	-412.1870727539064	112.1884460449219	-757.3430786132814	-209.0409393310547	66.20886230468751	-790.3767089843752	-201.1742858886719	61.22803878784181	-754.2130126953126	-237.7743377685547	49.01511001586915	-698.9227905273439	256.3471374511719	1541.062622070313	-850.6907958984377	nan	nan	nan	
1420	7.095	-221.9163970947266	1808.4326171875	-860.618835449219	-358.0925292968751	1764.833374023438	-927.6500244140627	-386.5151977539064	1742.865966796875	-764.5831909179689	-396.860321044922	1566.27685546875	-858.773376464844	-374.1575927734376	1263.010986328125	-864.4085693359377	-254.3436279296876	1542.361694335938	-863.2259521484377	-301.3623962402344	1593.20849609375	-1008.569519042969	-134.7485504150391	1565.861450195313	-1101.3681640625	-108.1634521484375	1575.917724609375	-1058.797241210938	-64.85491180419923	1558.527587890625	-1100.030029296875	-8.459568023681642	1555.342407226563	-1086.638671875	-20.88109016418457	1481.198364257813	-1073.318603515625	245.5005340576172	1558.765258789063	-969.1900024414065	259.8523864746094	1572.468994140625	-868.1482543945315	-306.5873718261719	1569.106689453125	-697.3084106445314	-145.38916015625	1528.108520507813	-606.7597656250001	-117.1570739746094	1547.722534179688	-644.8666992187501	-75.43434906005861	1525.282592773438	-606.2035522460939	-15.1763505935669	1528.068237304688	-617.9966430664064	-20.61453437805176	1450.19140625	-640.6726074218751	239.8169708251954	1548.095947265625	-736.5733642578126	-193.927963256836	1078.421142578125	-982.9121093750002	-177.4105072021485	1061.364379882813	-767.8112792968751	-356.7411499023438	1118.384155273438	-860.9797363281252	-361.2998962402344	1084.888061523438	-887.784851074219	-356.9184265136719	1087.6748046875	-830.1702880859377	-305.1041259765626	846.0587158203127	-1057.236206054688	-275.6065673828126	766.5358276367189	-1063.451049804688	-227.8803100585938	766.5438232421876	-1059.593383789063	-305.5774536132813	715.0802612304689	-1050.774658203125	-298.2111816406251	553.6682128906251	-1045.6982421875	-280.8499145507813	540.5372924804689	-924.7392578125002	-275.2944946289063	373.2373962402344	-988.8458251953127	-307.1350402832032	332.4649353027344	-1061.342529296875	-273.9046936035157	328.2125854492188	-1027.417846679688	-288.6658935546876	248.6161804199219	-1003.142700195313	-344.8492126464844	134.0504760742188	-1054.723754882813	-322.1142578125001	139.0857391357422	-971.911804199219	-407.5262451171876	111.2458648681641	-1007.027709960938	-202.0462646484376	62.90997695922853	-986.347351074219	-200.9074707031251	62.91661834716798	-1033.32373046875	-238.2229003906251	50.26289749145509	-1079.325561523438	-286.0759887695313	797.7017211914065	-687.4313354492189	-248.6295928955079	740.7753906250001	-688.8121337890626	-217.3775482177735	741.0324707031251	-698.7267456054689	-280.5375671386719	663.0711059570314	-703.4148559570314	-292.8173217773438	546.9990844726564	-711.6707763671876	-307.5230102539063	541.6035156250001	-836.2835083007815	-257.6320190429688	417.1392822265626	-741.2552490234376	-326.9154357910157	348.7197570800782	-689.0534057617189	-286.6844482421876	340.0649414062501	-709.0428466796876	-279.9999389648438	289.1953125000001	-735.2808227539064	-350.5328369140626	138.1689605712891	-715.3533325195314	-334.8160095214844	143.5458374023438	-798.8318481445315	-412.1580505371095	112.1458816528321	-757.3417968750001	-209.0754852294922	66.08615875244142	-790.432067871094	-201.2583312988282	61.34836959838869	-754.2147216796876	-237.790756225586	48.96056747436525	-698.9240722656251	256.2440795898438	1541.36865234375	-850.6557617187502	nan	nan	nan	
1421	7.100000000000001	-222.069564819336	1808.478759765625	-860.4665527343752	-358.1375427246094	1764.839233398438	-927.635925292969	-386.6304626464845	1742.85986328125	-764.5064086914064	-396.9752502441407	1566.254516601563	-858.735778808594	-374.0806274414063	1262.885375976563	-864.3577880859377	-254.5043029785157	1542.336791992188	-863.1851806640627	-301.9051818847657	1593.537231445313	-1008.523132324219	-134.8592071533203	1566.07470703125	-1101.322143554688	-108.2774200439453	1576.118774414063	-1058.753051757813	-64.86243438720705	1558.7041015625	-1099.976684570313	-8.416817665100099	1555.584106445313	-1086.595947265625	-21.12553787231446	1481.198486328125	-1073.203369140625	245.311752319336	1559.233154296875	-969.1814575195315	259.9727478027344	1572.29443359375	-867.9793701171877	-306.7160339355469	1568.8916015625	-697.2065429687501	-145.4837951660157	1528.129150390625	-606.5787963867189	-117.3471069335938	1547.9970703125	-644.8905029296876	-75.52713775634767	1525.406494140625	-606.2346191406251	-15.24699115753174	1528.286743164063	-617.9587402343751	-20.62974357604981	1450.402954101563	-640.7707519531251	239.7346801757813	1548.706787109375	-736.6304321289064	-193.8367767333985	1078.4111328125	-982.9453125000002	-177.3506011962891	1061.338134765625	-767.8437500000001	-356.6318359375001	1118.354370117188	-860.9969482421877	-361.1932373046876	1084.977783203125	-887.8319091796877	-356.8117370605469	1087.7060546875	-830.171569824219	-305.0462341308594	846.0257568359377	-1057.254638671875	-275.5511779785157	766.5551757812501	-1063.45068359375	-227.4050445556641	766.3041381835939	-1059.578247070313	-305.5951843261719	715.0421752929689	-1050.779296875	-298.1554870605469	553.6861572265626	-1045.672729492188	-280.8776245117188	540.5918579101564	-924.7710571289065	-275.2966308593751	373.2858581542969	-988.819274902344	-307.2383728027344	332.4230346679688	-1061.360961914063	-273.8898010253907	328.1801147460938	-1027.374267578125	-288.7022399902344	248.6518249511719	-1003.159973144531	-344.8836364746094	134.0606536865235	-1054.761840820313	-322.0390930175782	139.0031433105469	-971.8199462890627	-407.5357360839845	111.2326889038086	-1006.982421875	-201.9800415039063	62.91288375854494	-986.3364868164065	-200.9087371826172	62.91905593872072	-1033.325805664063	-238.1882019042969	50.20504760742189	-1079.345458984375	-285.9546813964844	797.625671386719	-687.4024658203126	-248.5898437500001	740.8179931640626	-688.8444824218751	-217.2446899414063	741.2148437500001	-698.0602416992189	-280.4549560546876	662.9993896484376	-703.3897705078126	-292.7686157226563	546.9824829101564	-711.7307128906251	-307.4355163574219	541.6071777343751	-836.3122558593752	-257.5863342285157	417.1267700195314	-741.2442016601564	-326.8719787597657	348.7300720214844	-689.0755004882814	-286.6457519531251	340.0777282714844	-709.0596313476564	-279.9798278808594	289.1816406250001	-735.3031616210939	-350.5531921386719	138.1741027832032	-715.3439941406251	-334.7646484375001	143.5408782958985	-798.7994384765627	-412.1459960937501	112.1657180786133	-757.3737792968751	-209.2005920410157	66.05153656005861	-790.4433593750002	-201.1812133789063	61.3019485473633	-754.1870117187501	-237.7845611572266	49.01345062255861	-698.9280395507814	256.0794982910157	1542.886962890625	-850.6544189453127	nan	nan	nan	
